<?xml version="1.0" standalone="no"?>
<!DOCTYPE svg PUBLIC "-//W3C//DTD SVG 20010904//EN"
 "http://www.w3.org/TR/2001/REC-SVG-20010904/DTD/svg10.dtd">
<svg version="1.0" xmlns="http://www.w3.org/2000/svg"
 width="400.000000pt" height="400.000000pt" viewBox="0 0 500.000000 500.000000"
 preserveAspectRatio="xMidYMid meet">

	<g transform="translate(0.000000,500.000000) scale(0.100000,-0.100000)"
	fill="none" stroke="none">

		<!-- Äußeres Herz -->
		<path d="M1237 4485 c-299 -43 -543 -168 -773 -399 -177 -178 -290 -361 -362
  -586 -46 -144 -55 -226 -49 -412 4 -131 10 -182 31 -258 76 -286 219 -512 461
  -735 l95 -87 0 740 c0 735 0 739 21 766 l21 26 206 -2 207 -3 0 -24 c0 -26 -8
  -32 -75 -52 -29 -9 -49 -23 -57 -39 -10 -20 -12 -202 -10 -863 2 -817 2 -839
  21 -853 16 -12 94 -14 447 -14 497 0 466 -7 481 100 8 64 20 82 48 77 13 -2
  15 -28 15 -162 l0 -160 -418 -5 -419 -5 712 -683 c391 -376 715 -682 720 -680
  6 2 323 309 706 683 658 642 695 680 668 685 -22 4 -29 11 -29 29 0 26 8 32
  75 52 29 9 49 23 57 39 10 20 12 202 10 863 -2 817 -2 839 -21 853 -16 12 -94
  14 -447 14 -499 0 -464 8 -483 -105 -10 -62 -14 -70 -35 -73 -13 -2 -28 2 -32
  10 -5 7 -9 77 -9 154 0 107 3 144 14 153 9 8 211 10 737 9 l724 -3 0 -24 c0
  -27 -11 -34 -72 -50 -24 -7 -47 -20 -53 -31 -7 -12 -9 -269 -8 -759 l3 -740
  130 127 c262 254 418 518 481 812 28 130 26 382 -4 517 -63 285 -176 496 -367
  689 -330 331 -785 473 -1239 388 -274 -52 -496 -171 -697 -373 l-117 -117
  -108 106 c-212 207 -462 340 -745 395 -116 23 -340 28 -462 10z" fill="#121212"/>

		<!-- Inneres Herz -->
		<path d="M2350 2650 c36 -17 87 -51 114 -76 l49 -46 48 46 c118 113 298 143
  446 73 80 -38 130 -78 168 -136 97 -147 98 -311 2 -461 -16 -26 -172 -186 -345
  -355 l-316 -308 -324 312 c-178 171 -339 331 -356 356 -86 119 -95 278 -25
  413 24 47 99 124 154 159 108 69 266 79 385 23z" fill="#9f7aea"/>
	</g>
</svg>
